<svg width="306" height="1018" viewBox="0 0 306 1018" fill="none" xmlns="http://www.w3.org/2000/svg">
<rect y="356" width="306" height="306" fill="#EAD7C6"/>
<rect width="306" height="306" fill="#AB5D39"/>
<rect y="712" width="306" height="306" fill="#52240D"/>
<path d="M63.032 157.168L60.344 165.04H75.32L72.632 157.168C71.7787 154.651 70.968 152.24 70.2 149.936C69.432 147.632 68.6853 145.179 67.96 142.576H67.704C66.9787 145.179 66.232 147.632 65.464 149.936C64.696 152.24 63.8853 154.651 63.032 157.168ZM51.512 182L66.36 139.824H69.304L84.152 182H81.08L76.152 167.536H59.448L54.456 182H51.512ZM90.8955 182V139.824H102.288C106.554 139.824 109.946 140.656 112.464 142.32C114.981 143.941 116.24 146.523 116.24 150.064C116.24 152.283 115.685 154.224 114.576 155.888C113.466 157.509 111.845 158.64 109.712 159.28V159.536C112.442 159.963 114.64 161.051 116.304 162.8C117.968 164.507 118.8 166.811 118.8 169.712C118.8 173.765 117.37 176.837 114.512 178.928C111.696 180.976 107.898 182 103.12 182H90.8955ZM93.8395 158.384H101.135C105.445 158.384 108.538 157.68 110.416 156.272C112.336 154.821 113.296 152.859 113.296 150.384C113.296 147.397 112.293 145.307 110.288 144.112C108.282 142.875 105.338 142.256 101.456 142.256H93.8395V158.384ZM93.8395 179.568H102.352C106.533 179.568 109.84 178.779 112.272 177.2C114.704 175.621 115.92 173.147 115.92 169.776C115.92 166.747 114.725 164.507 112.336 163.056C109.989 161.563 106.661 160.816 102.352 160.816H93.8395V179.568ZM136.216 182.768C134.04 182.768 132.141 182.491 130.52 181.936C128.941 181.381 127.576 180.677 126.424 179.824C125.272 178.971 124.248 178.117 123.352 177.264L124.952 175.28C126.189 176.517 127.661 177.669 129.368 178.736C131.117 179.76 133.378 180.272 136.152 180.272C137.986 180.272 139.672 179.824 141.208 178.928C142.744 177.989 143.981 176.688 144.92 175.024C145.858 173.36 146.328 171.44 146.328 169.264C146.328 165.979 145.41 163.397 143.576 161.52C141.784 159.643 139.373 158.704 136.344 158.704C134.765 158.704 133.4 158.96 132.248 159.472C131.138 159.941 129.965 160.603 128.728 161.456L126.744 160.24L128.216 141.104H147.096V143.6H130.776L129.496 158.384C130.562 157.744 131.672 157.232 132.824 156.848C133.976 156.421 135.298 156.208 136.792 156.208C139.096 156.208 141.186 156.677 143.064 157.616C144.984 158.512 146.498 159.92 147.608 161.84C148.717 163.717 149.272 166.149 149.272 169.136C149.272 172.037 148.632 174.512 147.352 176.56C146.114 178.565 144.493 180.101 142.488 181.168C140.525 182.235 138.434 182.768 136.216 182.768ZM158.521 182V139.824H168.312C172.665 139.824 176.249 140.699 179.065 142.448C181.881 144.155 183.971 146.565 185.337 149.68C186.745 152.795 187.449 156.485 187.449 160.752C187.449 165.019 186.745 168.752 185.337 171.952C183.971 175.109 181.881 177.584 179.065 179.376C176.249 181.125 172.686 182 168.377 182H158.521ZM161.465 179.504H167.993C171.833 179.504 174.947 178.715 177.337 177.136C179.769 175.515 181.539 173.296 182.649 170.48C183.801 167.664 184.377 164.421 184.377 160.752C184.377 157.083 183.801 153.883 182.649 151.152C181.539 148.379 179.769 146.224 177.337 144.688C174.947 143.109 171.833 142.32 167.993 142.32H161.465V179.504ZM205.786 182.768C203.61 182.768 201.711 182.491 200.09 181.936C198.468 181.339 197.06 180.592 195.866 179.696C194.714 178.8 193.69 177.904 192.794 177.008L194.458 175.024C195.695 176.347 197.188 177.563 198.938 178.672C200.687 179.739 202.97 180.272 205.786 180.272C208.559 180.272 210.842 179.461 212.634 177.84C214.426 176.176 215.322 173.979 215.322 171.248C215.322 168.432 214.212 166.149 211.994 164.4C209.818 162.651 206.17 161.776 201.05 161.776V159.28C204.207 159.28 206.724 158.896 208.602 158.128C210.479 157.317 211.823 156.229 212.634 154.864C213.444 153.499 213.85 152.005 213.85 150.384C213.85 148.08 213.103 146.245 211.61 144.88C210.116 143.472 208.111 142.768 205.594 142.768C203.716 142.768 201.967 143.216 200.345 144.112C198.767 144.965 197.38 146.011 196.186 147.248L194.522 145.328C195.93 143.963 197.53 142.789 199.322 141.808C201.156 140.827 203.247 140.336 205.594 140.336C207.727 140.336 209.626 140.72 211.29 141.488C212.996 142.256 214.34 143.387 215.322 144.88C216.303 146.331 216.794 148.101 216.794 150.192C216.794 152.88 216.047 155.056 214.554 156.72C213.103 158.341 211.247 159.536 208.986 160.304V160.56C210.692 160.901 212.228 161.563 213.594 162.544C215.002 163.483 216.132 164.677 216.986 166.128C217.839 167.579 218.266 169.264 218.266 171.184C218.266 173.531 217.711 175.579 216.602 177.328C215.492 179.077 213.999 180.421 212.122 181.36C210.244 182.299 208.132 182.768 205.786 182.768ZM227.131 153.072C227.131 156.059 227.835 158.533 229.243 160.496C230.651 162.416 232.912 163.376 236.027 163.376C237.52 163.376 239.141 162.885 240.891 161.904C242.683 160.923 244.368 159.344 245.947 157.168C245.691 152.859 244.688 149.381 242.939 146.736C241.232 144.091 238.715 142.768 235.387 142.768C233.851 142.768 232.443 143.237 231.163 144.176C229.925 145.072 228.944 146.288 228.219 147.824C227.493 149.36 227.131 151.109 227.131 153.072ZM233.787 182.768C231.909 182.768 230.245 182.405 228.795 181.68C227.387 180.955 226.171 179.995 225.147 178.8L226.875 176.88C227.771 177.989 228.816 178.843 230.01 179.44C231.248 179.995 232.528 180.272 233.851 180.272C236.027 180.272 238.032 179.632 239.867 178.352C241.701 177.072 243.173 174.96 244.283 172.016C245.435 169.072 246.011 165.104 246.011 160.112C244.603 161.819 243.003 163.184 241.211 164.208C239.419 165.232 237.563 165.744 235.643 165.744C232.101 165.744 229.328 164.677 227.323 162.544C225.317 160.368 224.315 157.211 224.315 153.072C224.315 150.597 224.827 148.4 225.851 146.48C226.875 144.56 228.24 143.067 229.947 142C231.653 140.891 233.509 140.336 235.515 140.336C239.568 140.336 242.789 142 245.179 145.328C247.611 148.613 248.827 153.371 248.827 159.6C248.827 165.317 248.123 169.883 246.715 173.296C245.307 176.667 243.451 179.099 241.147 180.592C238.885 182.043 236.432 182.768 233.787 182.768Z" fill="#EAD7C6"/>
<path d="M57.208 538V495.824H80.312V498.384H60.152V514.32H77.048V516.88H60.152V535.44H80.952V538H57.208ZM95.9695 513.168L93.2815 521.04H108.258L105.57 513.168C104.716 510.651 103.906 508.24 103.138 505.936C102.37 503.632 101.623 501.179 100.898 498.576H100.642C99.9162 501.179 99.1695 503.632 98.4015 505.936C97.6335 508.24 96.8228 510.651 95.9695 513.168ZM84.4495 538L99.2975 495.824H102.242L117.09 538H114.018L109.09 523.536H92.3855L87.3935 538H84.4495ZM123.833 538V495.824H133.625C137.977 495.824 141.561 496.699 144.377 498.448C147.193 500.155 149.284 502.565 150.649 505.68C152.057 508.795 152.761 512.485 152.761 516.752C152.761 521.019 152.057 524.752 150.649 527.952C149.284 531.109 147.193 533.584 144.377 535.376C141.561 537.125 137.998 538 133.689 538H123.833ZM126.777 535.504H133.305C137.145 535.504 140.26 534.715 142.649 533.136C145.081 531.515 146.852 529.296 147.961 526.48C149.113 523.664 149.689 520.421 149.689 516.752C149.689 513.083 149.113 509.883 147.961 507.152C146.852 504.379 145.081 502.224 142.649 500.688C140.26 499.109 137.145 498.32 133.305 498.32H126.777V535.504ZM168.282 538C168.495 532.496 169.05 527.568 169.946 523.216C170.842 518.864 172.165 514.811 173.914 511.056C175.663 507.259 177.903 503.44 180.634 499.6H159.066V497.104H184.218V498.768C181.786 502.011 179.759 505.147 178.138 508.176C176.559 511.163 175.301 514.192 174.362 517.264C173.423 520.336 172.719 523.557 172.25 526.928C171.823 530.299 171.525 533.989 171.354 538H168.282ZM208.059 538.768C204.603 538.768 201.531 537.872 198.843 536.08C196.198 534.288 194.128 531.749 192.635 528.464C191.142 525.179 190.395 521.296 190.395 516.816C190.395 512.336 191.142 508.475 192.635 505.232C194.171 501.989 196.283 499.493 198.971 497.744C201.659 495.952 204.795 495.056 208.379 495.056C210.854 495.056 213.03 495.568 214.907 496.592C216.784 497.616 218.278 498.789 219.387 500.112L217.659 502.096C216.507 500.773 215.163 499.728 213.627 498.96C212.091 498.149 210.363 497.744 208.443 497.744C205.371 497.744 202.704 498.533 200.443 500.112C198.224 501.648 196.496 503.845 195.259 506.704C194.064 509.52 193.467 512.891 193.467 516.816C193.467 520.699 194.064 524.091 195.259 526.992C196.454 529.893 198.139 532.133 200.315 533.712C202.534 535.291 205.158 536.08 208.187 536.08C210.363 536.08 212.304 535.653 214.011 534.8C215.718 533.904 217.339 532.603 218.875 530.896L220.603 532.752C218.982 534.587 217.168 536.059 215.163 537.168C213.158 538.235 210.79 538.768 208.059 538.768ZM239.192 515.728C237.741 515.728 236.141 516.197 234.392 517.136C232.643 518.032 230.936 519.611 229.272 521.872C229.528 526.181 230.509 529.68 232.216 532.368C233.923 535.013 236.44 536.336 239.768 536.336C241.347 536.336 242.755 535.888 243.992 534.992C245.229 534.053 246.211 532.816 246.936 531.28C247.661 529.701 248.024 527.931 248.024 525.968C248.024 523.024 247.32 520.592 245.912 518.672C244.547 516.709 242.307 515.728 239.192 515.728ZM239.704 538.768C235.608 538.768 232.344 537.104 229.912 533.776C227.523 530.405 226.328 525.627 226.328 519.44C226.328 515.131 226.733 511.504 227.544 508.56C228.355 505.616 229.464 503.248 230.872 501.456C232.28 499.664 233.88 498.363 235.672 497.552C237.507 496.741 239.405 496.336 241.368 496.336C243.288 496.336 244.931 496.699 246.296 497.424C247.704 498.149 248.941 499.109 250.008 500.304L248.28 502.224C247.384 501.115 246.339 500.283 245.144 499.728C243.949 499.131 242.691 498.832 241.368 498.832C239.192 498.832 237.165 499.472 235.288 500.752C233.453 502.032 231.981 504.144 230.872 507.088C229.763 510.032 229.208 514 229.208 518.992C230.616 517.243 232.216 515.856 234.008 514.832C235.8 513.808 237.635 513.296 239.512 513.296C243.096 513.296 245.891 514.384 247.896 516.56C249.901 518.693 250.904 521.829 250.904 525.968C250.904 528.443 250.392 530.64 249.368 532.56C248.344 534.48 246.979 535.995 245.272 537.104C243.608 538.213 241.752 538.768 239.704 538.768Z" fill="#AB5D39"/>
<path d="M72.528 894.768C70.352 894.768 68.4533 894.491 66.832 893.936C65.2533 893.381 63.888 892.677 62.736 891.824C61.584 890.971 60.56 890.117 59.664 889.264L61.264 887.28C62.5013 888.517 63.9733 889.669 65.68 890.736C67.4293 891.76 69.6907 892.272 72.464 892.272C74.2987 892.272 75.984 891.824 77.52 890.928C79.056 889.989 80.2933 888.688 81.232 887.024C82.1707 885.36 82.64 883.44 82.64 881.264C82.64 877.979 81.7227 875.397 79.888 873.52C78.096 871.643 75.6853 870.704 72.656 870.704C71.0773 870.704 69.712 870.96 68.56 871.472C67.4507 871.941 66.2773 872.603 65.04 873.456L63.056 872.24L64.528 853.104H83.408V855.6H67.088L65.808 870.384C66.8747 869.744 67.984 869.232 69.136 868.848C70.288 868.421 71.6107 868.208 73.104 868.208C75.408 868.208 77.4987 868.677 79.376 869.616C81.296 870.512 82.8107 871.92 83.92 873.84C85.0293 875.717 85.584 878.149 85.584 881.136C85.584 884.037 84.944 886.512 83.664 888.56C82.4267 890.565 80.8053 892.101 78.8 893.168C76.8373 894.235 74.7467 894.768 72.528 894.768ZM91.249 894V892.208C95.729 887.643 99.4623 883.696 102.449 880.368C105.436 876.997 107.676 873.989 109.169 871.344C110.662 868.699 111.409 866.203 111.409 863.856C111.409 861.296 110.684 859.141 109.233 857.392C107.825 855.643 105.585 854.768 102.513 854.768C100.678 854.768 98.929 855.28 97.265 856.304C95.6437 857.328 94.2143 858.608 92.977 860.144L91.121 858.352C92.657 856.645 94.3637 855.216 96.241 854.064C98.1183 852.912 100.294 852.336 102.769 852.336C106.438 852.336 109.276 853.381 111.281 855.472C113.286 857.563 114.289 860.336 114.289 863.792C114.289 866.48 113.5 869.211 111.921 871.984C110.385 874.757 108.209 877.744 105.393 880.944C102.62 884.144 99.3343 887.749 95.537 891.76C96.6463 891.675 97.777 891.611 98.929 891.568C100.124 891.483 101.276 891.44 102.385 891.44H116.337V894H91.249ZM121.874 894V892.208C126.354 887.643 130.087 883.696 133.074 880.368C136.061 876.997 138.301 873.989 139.794 871.344C141.287 868.699 142.034 866.203 142.034 863.856C142.034 861.296 141.309 859.141 139.858 857.392C138.45 855.643 136.21 854.768 133.138 854.768C131.303 854.768 129.554 855.28 127.89 856.304C126.269 857.328 124.839 858.608 123.602 860.144L121.746 858.352C123.282 856.645 124.989 855.216 126.866 854.064C128.743 852.912 130.919 852.336 133.394 852.336C137.063 852.336 139.901 853.381 141.906 855.472C143.911 857.563 144.914 860.336 144.914 863.792C144.914 866.48 144.125 869.211 142.546 871.984C141.01 874.757 138.834 877.744 136.018 880.944C133.245 884.144 129.959 887.749 126.162 891.76C127.271 891.675 128.402 891.611 129.554 891.568C130.749 891.483 131.901 891.44 133.01 891.44H146.962V894H121.874ZM154.355 879.344H169.715V864.368C169.715 863.429 169.736 862.256 169.779 860.848C169.864 859.44 169.928 858.267 169.971 857.328H169.715C169.203 858.181 168.67 859.013 168.115 859.824C167.56 860.635 166.984 861.509 166.387 862.448L154.355 879.344ZM169.715 894V881.776H150.899V880.112L169.907 853.104H172.467V879.344H178.547V881.776H172.467V894H169.715ZM195.796 894.768C191.913 894.768 188.905 892.912 186.772 889.2C184.639 885.488 183.572 880.219 183.572 873.392C183.572 866.608 184.639 861.403 186.772 857.776C188.905 854.149 191.913 852.336 195.796 852.336C199.721 852.336 202.729 854.149 204.82 857.776C206.953 861.403 208.02 866.608 208.02 873.392C208.02 880.219 206.953 885.488 204.82 889.2C202.729 892.912 199.721 894.768 195.796 894.768ZM195.796 892.336C198.655 892.336 200.916 890.736 202.58 887.536C204.287 884.336 205.14 879.621 205.14 873.392C205.14 867.163 204.287 862.512 202.58 859.44C200.916 856.325 198.655 854.768 195.796 854.768C192.98 854.768 190.719 856.325 189.012 859.44C187.305 862.512 186.452 867.163 186.452 873.392C186.452 879.621 187.305 884.336 189.012 887.536C190.719 890.736 192.98 892.336 195.796 892.336ZM217.333 894V851.824H227.125C231.477 851.824 235.061 852.699 237.877 854.448C240.693 856.155 242.784 858.565 244.149 861.68C245.557 864.795 246.261 868.485 246.261 872.752C246.261 877.019 245.557 880.752 244.149 883.952C242.784 887.109 240.693 889.584 237.877 891.376C235.061 893.125 231.498 894 227.189 894H217.333ZM220.277 891.504H226.805C230.645 891.504 233.76 890.715 236.149 889.136C238.581 887.515 240.352 885.296 241.461 882.48C242.613 879.664 243.189 876.421 243.189 872.752C243.189 869.083 242.613 865.883 241.461 863.152C240.352 860.379 238.581 858.224 236.149 856.688C233.76 855.109 230.645 854.32 226.805 854.32H220.277V891.504Z" fill="#EAD7C6"/>
</svg>
