<svg width="848" height="742" viewBox="0 0 848 742" fill="none" xmlns="http://www.w3.org/2000/svg">
<path d="M237.32 547.376C252.595 547.376 263.944 551.216 271.368 558.896C278.792 566.491 282.504 577.413 282.504 591.664C282.504 600.965 280.669 609.115 277 616.112C273.416 623.024 268.168 628.4 261.256 632.24C254.344 636.08 245.981 638 236.168 638C234.888 638 233.181 637.957 231.048 637.872C228.915 637.787 226.696 637.744 224.392 637.744C222.173 637.659 220.125 637.616 218.248 637.616C215.261 637.616 212.317 637.659 209.416 637.744C206.515 637.744 204.168 637.829 202.376 638V635.44C205.277 635.269 207.453 634.928 208.904 634.416C210.44 633.904 211.464 632.88 211.976 631.344C212.488 629.808 212.744 627.504 212.744 624.432V560.944C212.744 557.787 212.488 555.483 211.976 554.032C211.464 552.496 210.44 551.472 208.904 550.96C207.453 550.363 205.277 550.021 202.376 549.936V547.376C204.168 547.461 206.515 547.589 209.416 547.76C212.317 547.845 215.176 547.845 217.992 547.76C220.979 547.675 224.349 547.589 228.104 547.504C231.859 547.419 234.931 547.376 237.32 547.376ZM234.12 549.68C230.195 549.68 227.635 550.405 226.44 551.856C225.245 553.307 224.648 556.251 224.648 560.688V624.688C224.648 629.125 225.245 632.069 226.44 633.52C227.72 634.971 230.323 635.696 234.248 635.696C243.549 635.696 250.76 634.032 255.88 630.704C261 627.291 264.584 622.341 266.632 615.856C268.68 609.371 269.704 601.477 269.704 592.176C269.704 582.619 268.552 574.725 266.248 568.496C264.029 562.181 260.317 557.488 255.112 554.416C249.992 551.259 242.995 549.68 234.12 549.68Z" fill="#EAD7C6"/>
<path d="M324.316 570.288C331.825 570.288 337.671 572.592 341.852 577.2C346.119 581.723 354 598.96 341.084 598.96L303.068 598.448L302.94 596.016H334.684C337.5 596.016 335.793 587.995 334.94 584.496C334.087 580.912 332.721 578.053 330.844 575.92C329.052 573.787 326.705 572.72 323.804 572.72C319.879 572.72 316.38 574.683 313.308 578.608C310.321 582.533 308.529 588.763 307.932 597.296L308.316 597.808C308.145 599.088 308.017 600.496 307.932 602.032C307.847 603.568 307.804 605.104 307.804 606.64C307.804 612.443 308.743 617.435 310.62 621.616C312.497 625.797 314.929 628.997 317.916 631.216C320.988 633.349 324.145 634.416 327.388 634.416C329.948 634.416 332.38 634.032 334.684 633.264C336.988 632.411 339.121 631.045 341.084 629.168C343.047 627.291 344.753 624.773 346.204 621.616L348.764 622.64C347.825 625.456 346.289 628.187 344.156 630.832C342.023 633.477 339.335 635.653 336.092 637.36C332.849 638.981 329.095 639.792 324.828 639.792C318.684 639.792 313.393 638.384 308.956 635.568C304.604 632.752 301.233 628.869 298.844 623.92C296.54 618.885 295.388 613.125 295.388 606.64C295.388 599.131 296.583 592.688 298.972 587.312C301.361 581.851 304.732 577.669 309.084 574.768C313.436 571.781 318.513 570.288 324.316 570.288Z" fill="#EAD7C6"/>
<path d="M378.314 537.648V626.096C378.314 629.68 379.039 632.112 380.49 633.392C382.026 634.672 384.543 635.312 388.042 635.312V638C386.591 637.915 384.373 637.829 381.386 637.744C378.485 637.573 375.541 637.488 372.554 637.488C369.653 637.488 366.709 637.573 363.722 637.744C360.735 637.829 358.517 637.915 357.066 638V635.312C360.565 635.312 363.039 634.672 364.49 633.392C366.026 632.112 366.794 629.68 366.794 626.096V553.008C366.794 549.168 366.111 546.352 364.746 544.56C363.381 542.683 360.821 541.744 357.066 541.744V539.056C359.797 539.312 362.442 539.44 365.002 539.44C367.477 539.44 369.823 539.312 372.042 539.056C374.346 538.715 376.437 538.245 378.314 537.648Z" fill="#EAD7C6"/>
<path d="M415.835 570.672V626.096C415.835 629.68 416.56 632.112 418.011 633.392C419.547 634.672 422.064 635.312 425.563 635.312V638C424.112 637.915 421.894 637.829 418.907 637.744C416.006 637.573 413.062 637.488 410.075 637.488C407.174 637.488 404.23 637.573 401.243 637.744C398.256 637.829 396.038 637.915 394.587 638V635.312C398.086 635.312 400.56 634.672 402.011 633.392C403.547 632.112 404.315 629.68 404.315 626.096V586.032C404.315 582.192 403.632 579.376 402.267 577.584C400.902 575.707 398.342 574.768 394.587 574.768V572.08C397.318 572.336 399.963 572.464 402.523 572.464C404.998 572.464 407.344 572.336 409.563 572.08C411.867 571.739 413.958 571.269 415.835 570.672ZM422.619 533.936C423.643 534.789 424.198 535.899 424.283 537.264C424.454 538.629 423.899 540.165 422.619 541.872C421.339 543.493 419.76 545.115 417.883 546.736C416.006 548.357 413.787 550.32 411.227 552.624C408.752 554.843 405.808 557.744 402.395 561.328L400.987 560.176C403.632 555.995 405.723 552.411 407.259 549.424C408.88 546.437 410.246 543.835 411.355 541.616C412.464 539.397 413.659 537.477 414.939 535.856C416.219 534.149 417.542 533.211 418.907 533.04C420.358 532.869 421.595 533.168 422.619 533.936Z" fill="#EAD7C6"/>
<path d="M464.087 570.288C466.818 570.288 469.463 570.629 472.023 571.312C474.583 571.995 476.887 573.019 478.935 574.384C480.898 575.664 482.391 577.157 483.415 578.864C484.439 580.485 484.951 582.277 484.951 584.24C484.951 586.544 484.311 588.336 483.031 589.616C481.751 590.811 480.13 591.408 478.167 591.408C476.29 591.408 474.626 590.853 473.175 589.744C471.81 588.635 471 587.048 471 585C471 583.037 471.476 582.695 472.5 581.5C473.609 580.305 474.566 580.101 476 579C477.434 577.899 474.114 575.152 471.895 574.128C469.762 573.104 467.458 572.592 464.983 572.592C462.85 572.592 460.716 573.104 458.583 574.128C456.45 575.152 454.487 576.859 452.695 579.248C450.903 581.552 449.452 584.752 448.343 588.848C447.234 592.859 446.679 597.893 446.679 603.952C446.679 611.461 447.532 617.435 449.239 621.872C450.946 626.309 453.164 629.509 455.895 631.472C458.711 633.349 461.783 634.288 465.111 634.288C467.33 634.288 469.591 633.861 471.895 633.008C474.199 632.155 476.375 630.789 478.423 628.912C480.471 626.949 482.22 624.347 483.671 621.104L486.103 622C485.25 624.731 483.842 627.504 481.879 630.32C479.916 633.051 477.356 635.312 474.199 637.104C471.042 638.896 467.159 639.792 462.551 639.792C457.26 639.792 452.482 638.427 448.215 635.696C443.948 632.965 440.535 629.083 437.975 624.048C435.5 618.928 434.263 612.869 434.263 605.872C434.263 598.875 435.5 592.731 437.975 587.44C440.535 582.064 444.076 577.883 448.599 574.896C453.122 571.824 458.284 570.288 464.087 570.288Z" fill="#EAD7C6"/>
<path d="M508.929 540.08C511.148 540.08 513.068 540.891 514.689 542.512C516.31 544.133 517.121 546.053 517.121 548.272C517.121 550.491 516.31 552.411 514.689 554.032C513.068 555.653 511.148 556.464 508.929 556.464C506.71 556.464 504.79 555.653 503.169 554.032C501.548 552.411 500.737 550.491 500.737 548.272C500.737 546.053 501.548 544.133 503.169 542.512C504.79 540.891 506.71 540.08 508.929 540.08ZM515.585 570.672V626.096C515.585 629.68 516.31 632.112 517.761 633.392C519.297 634.672 521.814 635.312 525.313 635.312V638C523.862 637.915 521.644 637.829 518.657 637.744C515.756 637.573 512.812 637.488 509.825 637.488C506.924 637.488 503.98 637.573 500.993 637.744C498.006 637.829 495.788 637.915 494.337 638V635.312C497.836 635.312 500.31 634.672 501.761 633.392C503.297 632.112 504.065 629.68 504.065 626.096V586.032C504.065 582.192 503.382 579.376 502.017 577.584C500.652 575.707 498.092 574.768 494.337 574.768V572.08C497.068 572.336 499.713 572.464 502.273 572.464C504.748 572.464 507.094 572.336 509.313 572.08C511.617 571.739 513.708 571.269 515.585 570.672Z" fill="#EAD7C6"/>
<path d="M550.013 638.896C546.514 638.896 543.485 638.256 540.925 636.976C538.365 635.611 536.402 633.733 535.037 631.344C533.757 628.955 533.117 626.181 533.117 623.024C533.117 619.269 533.97 616.197 535.677 613.808C537.469 611.419 539.73 609.499 542.461 608.048C545.192 606.597 548.05 605.403 551.037 604.464C554.109 603.44 557.01 602.501 559.741 601.648C562.472 600.709 564.69 599.643 566.397 598.448C568.189 597.253 569.085 595.675 569.085 593.712V585.776C569.085 582.192 568.53 579.461 567.421 577.584C566.397 575.707 564.989 574.469 563.197 573.872C561.405 573.189 559.4 572.848 557.181 572.848C555.048 572.848 552.744 573.147 550.269 573.744C547.88 574.341 545.96 575.579 544.509 577.456C546.13 577.797 547.538 578.651 548.733 580.016C549.928 581.381 550.525 583.131 550.525 585.264C550.525 587.397 549.842 589.104 548.477 590.384C547.112 591.579 545.362 592.176 543.229 592.176C540.754 592.176 538.92 591.408 537.725 589.872C536.616 588.251 536.061 586.459 536.061 584.496C536.061 582.277 536.616 580.485 537.725 579.12C538.834 577.755 540.242 576.475 541.949 575.28C543.912 573.915 546.429 572.763 549.501 571.824C552.658 570.8 556.2 570.288 560.125 570.288C563.624 570.288 566.61 570.715 569.085 571.568C571.56 572.336 573.608 573.488 575.229 575.024C577.448 577.072 578.898 579.589 579.581 582.576C580.264 585.477 580.605 588.976 580.605 593.072V628.656C580.605 630.789 580.904 632.325 581.501 633.264C582.184 634.203 583.208 634.672 584.573 634.672C585.512 634.672 586.408 634.459 587.261 634.032C588.114 633.605 589.138 632.923 590.333 631.984L591.741 634.16C589.949 635.525 588.242 636.677 586.621 637.616C585 638.469 582.824 638.896 580.093 638.896C577.618 638.896 575.57 638.469 573.949 637.616C572.328 636.763 571.09 635.525 570.237 633.904C569.469 632.197 569.085 630.064 569.085 627.504C566.781 631.344 564.008 634.203 560.765 636.08C557.608 637.957 554.024 638.896 550.013 638.896ZM554.621 633.776C557.437 633.776 560.04 632.965 562.429 631.344C564.904 629.723 567.122 627.291 569.085 624.048V605.616C569.085 601.652 566.568 601.648 564.605 602.672C562.642 603.611 560.509 604.592 558.205 605.616C555.901 606.555 553.682 607.707 551.549 609.072C549.501 610.352 547.794 612.059 546.429 614.192C545.064 616.325 544.381 619.099 544.381 622.512C544.381 625.925 545.277 628.656 547.069 630.704C548.946 632.752 551.464 633.776 554.621 633.776Z" fill="#EAD7C6"/>
<path d="M618.499 570.288C621.912 570.288 624.814 570.843 627.203 571.952C629.592 573.061 631.342 574.085 632.451 575.024C635.267 577.328 636.974 575.792 637.571 570.416H640.515C640.344 572.805 640.216 575.664 640.131 578.992C640.046 582.235 640.003 586.629 640.003 592.176H637.059C636.547 589.019 635.651 585.947 634.371 582.96C633.176 579.973 631.384 577.541 628.995 575.664C626.606 573.701 623.491 572.72 619.651 572.72C616.664 572.72 614.147 573.573 612.099 575.28C610.136 576.901 609.155 579.333 609.155 582.576C609.155 585.136 609.923 587.355 611.459 589.232C612.995 591.024 615 592.731 617.475 594.352C619.95 595.888 622.638 597.595 625.539 599.472C628.782 601.52 631.726 603.611 634.371 605.744C637.016 607.877 639.107 610.224 640.643 612.784C642.264 615.344 643.075 618.373 643.075 621.872C643.075 625.797 642.051 629.083 640.003 631.728C637.955 634.373 635.267 636.379 631.939 637.744C628.696 639.109 625.112 639.792 621.187 639.792C619.31 639.792 617.518 639.621 615.811 639.28C614.19 639.024 612.611 638.597 611.075 638C610.222 637.573 609.326 637.061 608.387 636.464C607.534 635.867 606.68 635.227 605.827 634.544C604.974 633.861 604.206 633.904 603.523 634.672C602.84 635.355 602.328 636.763 601.987 638.896H599.043C599.214 636.165 599.342 632.837 599.427 628.912C599.512 624.987 599.555 619.781 599.555 613.296H602.499C603.096 618.075 603.95 622.256 605.059 625.84C606.168 629.424 607.918 632.24 610.307 634.288C612.696 636.251 616.024 637.232 620.291 637.232C621.998 637.232 623.704 636.848 625.411 636.08C627.203 635.312 628.696 634.032 629.891 632.24C631.086 630.448 631.683 628.059 631.683 625.072C631.683 621.317 630.318 618.245 627.587 615.856C624.856 613.467 621.4 610.949 617.219 608.304C614.147 606.341 611.246 604.379 608.515 602.416C605.87 600.453 603.694 598.235 601.987 595.76C600.366 593.285 599.555 590.299 599.555 586.8C599.555 582.96 600.408 579.845 602.115 577.456C603.907 574.981 606.254 573.189 609.155 572.08C612.056 570.885 615.171 570.288 618.499 570.288Z" fill="#EAD7C6"/>
<path d="M288.92 716.152C284.952 716.152 281.368 715.224 278.168 713.368C275.032 711.448 272.536 708.696 270.68 705.112C268.888 701.464 267.992 697.112 267.992 692.056C267.992 686.872 268.952 682.488 270.872 678.904C272.856 675.256 275.448 672.504 278.648 670.648C281.848 668.728 285.304 667.768 289.016 667.768C292.216 667.768 294.872 668.344 296.984 669.496C299.096 670.648 300.952 671.96 302.552 673.432L300.056 676.408C298.584 675 296.952 673.848 295.16 672.952C293.368 671.992 291.352 671.512 289.112 671.512C285.976 671.512 283.128 672.376 280.568 674.104C278.072 675.832 276.088 678.232 274.616 681.304C273.144 684.376 272.408 687.96 272.408 692.056C272.408 696.088 273.08 699.64 274.424 702.712C275.832 705.72 277.784 708.088 280.28 709.816C282.84 711.544 285.784 712.408 289.112 712.408C291.544 712.408 293.784 711.896 295.832 710.872C297.944 709.784 299.8 708.536 301.4 707.128L303.608 710.104C301.624 711.832 299.416 713.272 296.984 714.424C294.552 715.576 291.864 716.152 288.92 716.152ZM324.1 716.152C320.452 716.152 317.316 715.128 314.692 713.08C312.068 711.032 310.756 707.832 310.756 703.48C310.756 698.36 313.156 694.488 317.956 691.864C322.756 689.176 330.276 687.256 340.516 686.104C340.58 683.736 340.324 681.464 339.748 679.288C339.172 677.048 338.084 675.192 336.484 673.72C334.948 672.248 332.644 671.512 329.572 671.512C326.5 671.512 323.684 672.12 321.124 673.336C318.564 674.552 316.484 675.736 314.884 676.888L312.964 673.72C314.052 672.952 315.46 672.12 317.188 671.224C318.916 670.264 320.868 669.464 323.044 668.824C325.284 668.12 327.652 667.768 330.148 667.768C333.796 667.768 336.676 668.568 338.788 670.168C340.9 671.768 342.404 673.912 343.3 676.6C344.26 679.224 344.74 682.2 344.74 685.528V715H341.092L340.708 709.048H340.42C338.052 710.904 335.492 712.568 332.74 714.04C329.988 715.448 327.108 716.152 324.1 716.152ZM324.868 712.504C327.492 712.504 330.02 711.864 332.452 710.584C334.948 709.304 337.636 707.448 340.516 705.016V689.368C334.18 690.136 329.156 691.128 325.444 692.344C321.732 693.56 319.076 695.096 317.476 696.952C315.876 698.744 315.076 700.856 315.076 703.288C315.076 706.616 316.036 708.984 317.956 710.392C319.94 711.8 322.244 712.504 324.868 712.504ZM372.312 716.152C368.92 716.152 365.752 715.544 362.808 714.328C359.928 713.048 357.464 711.544 355.416 709.816L357.912 706.648C359.896 708.248 362.008 709.624 364.248 710.776C366.488 711.928 369.272 712.504 372.6 712.504C376.184 712.504 378.904 711.608 380.76 709.816C382.616 707.96 383.544 705.816 383.544 703.384C383.544 701.464 382.968 699.864 381.816 698.584C380.664 697.304 379.224 696.248 377.496 695.416C375.832 694.584 374.104 693.848 372.312 693.208C370.008 692.376 367.736 691.448 365.496 690.424C363.32 689.4 361.528 688.088 360.12 686.488C358.712 684.824 358.008 682.68 358.008 680.056C358.008 676.664 359.256 673.784 361.752 671.416C364.312 668.984 367.992 667.768 372.792 667.768C375.288 667.768 377.688 668.216 379.992 669.112C382.36 670.008 384.376 671.16 386.04 672.568L383.736 675.544C382.136 674.392 380.472 673.432 378.744 672.664C377.016 671.832 375 671.416 372.696 671.416C369.112 671.416 366.456 672.28 364.728 674.008C363.064 675.736 362.232 677.656 362.232 679.768C362.232 681.496 362.712 682.936 363.672 684.088C364.696 685.24 366.008 686.2 367.608 686.968C369.272 687.672 371 688.376 372.792 689.08C375.224 689.976 377.592 690.936 379.896 691.96C382.2 692.984 384.088 694.36 385.56 696.088C387.096 697.816 387.864 700.184 387.864 703.192C387.864 705.496 387.256 707.64 386.04 709.624C384.824 711.544 383.064 713.112 380.76 714.328C378.456 715.544 375.64 716.152 372.312 716.152ZM417.554 716.152C413.65 716.152 410.066 715.192 406.802 713.272C403.602 711.352 401.042 708.6 399.122 705.016C397.202 701.368 396.242 697.048 396.242 692.056C396.242 687 397.202 682.68 399.122 679.096C401.042 675.448 403.538 672.664 406.61 670.744C409.682 668.76 412.914 667.768 416.306 667.768C421.81 667.768 426.13 669.624 429.266 673.336C432.402 677.048 433.97 682.296 433.97 689.08C433.97 689.656 433.938 690.232 433.874 690.808C433.874 691.384 433.81 691.96 433.682 692.536H400.562C400.626 696.376 401.362 699.8 402.77 702.808C404.242 705.816 406.258 708.184 408.818 709.912C411.442 711.64 414.482 712.504 417.938 712.504C420.434 712.504 422.674 712.12 424.658 711.352C426.706 710.584 428.594 709.592 430.322 708.376L432.05 711.64C430.258 712.728 428.242 713.752 426.002 714.712C423.762 715.672 420.946 716.152 417.554 716.152ZM400.562 689.08H429.938C429.938 683.192 428.722 678.776 426.29 675.832C423.858 672.888 420.562 671.416 416.402 671.416C413.778 671.416 411.314 672.12 409.01 673.528C406.77 674.936 404.882 676.952 403.346 679.576C401.81 682.2 400.882 685.368 400.562 689.08ZM446.488 715V668.92H450.712V715H446.488ZM448.696 657.784C447.672 657.784 446.808 657.432 446.104 656.728C445.4 656.024 445.048 655.064 445.048 653.848C445.048 652.76 445.4 651.864 446.104 651.16C446.808 650.456 447.672 650.104 448.696 650.104C449.784 650.104 450.648 650.456 451.288 651.16C451.992 651.864 452.344 652.76 452.344 653.848C452.344 655.064 451.992 656.024 451.288 656.728C450.648 657.432 449.784 657.784 448.696 657.784ZM468.426 715V668.92H472.074L472.458 677.464H472.746C474.282 674.648 476.138 672.344 478.314 670.552C480.554 668.696 483.05 667.768 485.802 667.768C486.698 667.768 487.498 667.832 488.202 667.96C488.906 668.088 489.642 668.344 490.41 668.728L489.45 672.568C488.682 672.248 488.01 672.056 487.434 671.992C486.858 671.864 486.122 671.8 485.226 671.8C483.178 671.8 481.002 672.696 478.698 674.488C476.458 676.216 474.442 679.256 472.65 683.608V715H468.426ZM506.912 716.152C503.264 716.152 500.128 715.128 497.504 713.08C494.88 711.032 493.568 707.832 493.568 703.48C493.568 698.36 495.968 694.488 500.768 691.864C505.568 689.176 513.088 687.256 523.328 686.104C523.392 683.736 523.136 681.464 522.56 679.288C521.984 677.048 520.896 675.192 519.296 673.72C517.76 672.248 515.456 671.512 512.384 671.512C509.312 671.512 506.496 672.12 503.936 673.336C501.376 674.552 499.296 675.736 497.696 676.888L495.776 673.72C496.864 672.952 498.272 672.12 500 671.224C501.728 670.264 503.68 669.464 505.856 668.824C508.096 668.12 510.464 667.768 512.96 667.768C516.608 667.768 519.488 668.568 521.6 670.168C523.712 671.768 525.216 673.912 526.112 676.6C527.072 679.224 527.552 682.2 527.552 685.528V715H523.904L523.52 709.048H523.232C520.864 710.904 518.304 712.568 515.552 714.04C512.8 715.448 509.92 716.152 506.912 716.152ZM507.68 712.504C510.304 712.504 512.832 711.864 515.264 710.584C517.76 709.304 520.448 707.448 523.328 705.016V689.368C516.992 690.136 511.968 691.128 508.256 692.344C504.544 693.56 501.888 695.096 500.288 696.952C498.688 698.744 497.888 700.856 497.888 703.288C497.888 706.616 498.848 708.984 500.768 710.392C502.752 711.8 505.056 712.504 507.68 712.504ZM555.124 716.152C551.732 716.152 548.564 715.544 545.62 714.328C542.74 713.048 540.276 711.544 538.228 709.816L540.724 706.648C542.708 708.248 544.82 709.624 547.06 710.776C549.3 711.928 552.084 712.504 555.412 712.504C558.996 712.504 561.716 711.608 563.572 709.816C565.428 707.96 566.356 705.816 566.356 703.384C566.356 701.464 565.78 699.864 564.628 698.584C563.476 697.304 562.036 696.248 560.308 695.416C558.644 694.584 556.916 693.848 555.124 693.208C552.82 692.376 550.548 691.448 548.308 690.424C546.132 689.4 544.34 688.088 542.932 686.488C541.524 684.824 540.82 682.68 540.82 680.056C540.82 676.664 542.068 673.784 544.564 671.416C547.124 668.984 550.804 667.768 555.604 667.768C558.1 667.768 560.5 668.216 562.804 669.112C565.172 670.008 567.188 671.16 568.852 672.568L566.548 675.544C564.948 674.392 563.284 673.432 561.556 672.664C559.828 671.832 557.812 671.416 555.508 671.416C551.924 671.416 549.268 672.28 547.54 674.008C545.876 675.736 545.044 677.656 545.044 679.768C545.044 681.496 545.524 682.936 546.484 684.088C547.508 685.24 548.82 686.2 550.42 686.968C552.084 687.672 553.812 688.376 555.604 689.08C558.036 689.976 560.404 690.936 562.708 691.96C565.012 692.984 566.9 694.36 568.372 696.088C569.908 697.816 570.676 700.184 570.676 703.192C570.676 705.496 570.068 707.64 568.852 709.624C567.636 711.544 565.876 713.112 563.572 714.328C561.268 715.544 558.452 716.152 555.124 716.152Z" fill="#EAD7C6"/>
<path d="M571.682 442.389L740.11 206.855C740.11 206.855 752.5 177.419 756 165.5C759.5 153.581 752.011 122.016 752.011 122.016C718.146 40.4946 661.591 55.0869 637.547 72.5732C565.416 39.096 538.88 87.6144 534.629 116.058L530.788 118.276C508.723 118.494 488.46 136.616 478.298 148.581C468.136 160.546 461.252 177.203 460.008 185.889C438.881 190.688 421.191 212.283 414.039 225.518C406.886 238.753 406.413 260.273 409.771 268.389C406.175 273.197 400.022 275.155 397.396 275.534C346.973 303.507 360.286 341.349 373.185 368.618C383.504 390.433 416.829 400.52 432.202 402.837C443.548 406.72 466.733 415.34 468.704 418.754C470.676 422.169 482.28 429.128 487.836 432.18C503.473 438.897 536.925 452.554 545.633 453.445C554.341 454.337 566.628 446.446 571.682 442.389Z" fill="#52240D"/>
<path d="M275.627 442.389L107.199 206.854C107.199 206.854 94.8096 177.419 91.3096 165.5C87.8096 153.581 95.2981 122.016 95.2981 122.016C129.164 40.4946 185.718 55.0869 209.762 72.5731C281.894 39.096 308.429 87.6144 312.681 116.058L316.522 118.276C338.586 118.494 358.85 136.616 369.012 148.581C379.174 160.546 386.058 177.203 387.302 185.889C408.429 190.688 426.118 212.283 433.271 225.518C440.423 238.753 440.896 260.273 437.538 268.389C441.135 273.197 447.287 275.155 449.914 275.534C500.336 303.507 487.023 341.349 474.125 368.618C463.806 390.433 430.48 400.52 415.107 402.837C403.762 406.72 380.577 415.34 378.606 418.754C376.634 422.169 365.03 429.128 359.474 432.18C343.837 438.897 310.385 452.554 301.677 453.445C292.969 454.337 280.682 446.446 275.627 442.389Z" fill="#52240D"/>
<path d="M289.858 434.736C282.915 430.392 275.436 422.278 275.993 409.613C276.506 406.804 277.076 401.664 276.197 399.266C275.168 398.352 274.727 397.888 275.155 398.027C275.625 398.181 275.962 398.626 276.197 399.266C281.87 404.304 305.432 422.995 299.901 429.258C294.675 435.177 311.281 442.671 320.237 445.678L297.015 438.082C294.126 446.392 280.911 459.653 251.165 446.222C255.626 442.539 265.104 435.357 267.334 436.086C271.581 434.238 280.842 432.055 289.858 434.736Z" fill="#EAD7C6"/>
<path d="M255.041 393.505C251.916 409.346 265.192 421.675 272.221 425.859C285.42 420.717 266.232 395.966 254.988 384.233C255.516 390.164 255.243 392.885 255.041 393.505Z" fill="#EAD7C6"/>
<path d="M239.467 426.971C247.478 422.599 263.831 426.885 271.006 429.575C265.354 432.182 252.881 438.145 248.2 441.139C243.52 444.132 231.394 438.555 225.916 435.392C227.095 434.407 231.456 431.343 239.467 426.971Z" fill="#EAD7C6"/>
<path d="M233.355 384.355C229.823 393.894 243.23 409.179 250.375 415.629C261.796 402.09 244.36 381.099 234.214 372.297C234.6 374.891 233.802 381.416 233.355 384.355Z" fill="#EAD7C6"/>
<path d="M209.811 374.598C206.637 381.786 220.235 396.173 227.43 402.468C231.993 378.46 218.557 363.577 211.269 359.136C211.783 362.595 210.511 370.885 209.811 374.598Z" fill="#EAD7C6"/>
<path d="M205.102 388.995C196.06 384.153 180.359 369.386 189.887 349.058C198.423 355.448 213.415 372.383 205.102 388.995Z" fill="#EAD7C6"/>
<path d="M183.095 377.684C175.539 371.442 161.825 354.686 167.416 337.594C175.326 342.752 189.536 357.992 183.095 377.684Z" fill="#EAD7C6"/>
<path d="M178.459 377.71C168.298 375.243 145.707 373.784 136.637 387.681C149.059 391.059 174.813 393.793 178.459 377.71Z" fill="#EAD7C6"/>
<path d="M200.939 390.719C193.654 386.794 174.351 383.667 155.419 402.565C165.533 405.702 188.796 407.724 200.939 390.719Z" fill="#EAD7C6"/>
<path d="M196.686 403.723C202.96 398.372 217.331 401.907 223.732 404.344C209.245 422.227 189.094 418.55 180.829 414.475C187.77 412.118 188.842 410.412 196.686 403.723Z" fill="#EAD7C6"/>
<path d="M211.296 418.785C218.786 409.718 237.897 413.433 246.516 416.423C228.963 432.367 212.352 429.587 204.463 425.379C202.742 426.252 202.283 425.211 202.363 424.089C202.971 424.522 203.673 424.958 204.463 425.379C205.827 424.687 207.985 422.794 211.296 418.785Z" fill="#EAD7C6"/>
<path d="M163.423 369.96C154.024 370.68 135.196 370.555 130.326 364.537C135.993 360.127 150.546 355.037 163.423 369.96Z" fill="#EAD7C6"/>
<path d="M161.365 360.808C154.545 357.035 141.254 345.901 142.657 331.553C148.85 333.578 161.261 342.265 161.365 360.808Z" fill="#EAD7C6"/>
<path d="M527.735 435.207C533.752 429.65 539.597 420.291 536.701 407.948C535.677 405.283 534.163 400.338 534.583 397.818C535.424 396.73 535.771 396.191 535.377 396.408C534.944 396.646 534.694 397.146 534.583 397.818C529.942 403.821 510.255 426.557 516.85 431.686C523.083 436.533 515.177 443.116 506.933 447.732L521.323 439.822C525.703 447.452 541.147 458.032 567.887 439.319C562.821 436.527 552.175 431.227 550.119 432.357C545.603 431.328 536.098 430.9 527.735 435.207Z" fill="#EAD7C6"/>
<path d="M554.304 388.234C560.312 403.222 549.551 417.799 543.42 423.214C529.497 420.607 543.763 392.728 552.636 379.114C553.217 385.04 553.99 387.664 554.304 388.234Z" fill="#EAD7C6"/>
<path d="M575.813 418.233C567.13 415.422 551.855 422.666 545.303 426.64C551.34 428.154 564.703 431.701 569.858 433.774C575.012 435.848 585.894 428.119 590.69 423.995C589.349 423.246 584.495 421.044 575.813 418.233Z" fill="#EAD7C6"/>
<path d="M573.917 375.223C579.156 383.941 568.816 401.447 562.991 409.11C549.258 397.923 562.499 374.064 570.837 363.533C570.939 366.153 572.933 372.418 573.917 375.223Z" fill="#EAD7C6"/>
<path d="M595.243 361.269C599.695 367.744 589.001 384.403 583.098 391.923C574.162 369.177 584.605 352.061 590.943 346.346C591.08 349.84 593.867 357.75 595.243 361.269Z" fill="#EAD7C6"/>
<path d="M602.541 374.544C610.527 368.109 623.218 350.687 610.086 332.478C602.884 340.34 591.292 359.761 602.541 374.544Z" fill="#EAD7C6"/>
<path d="M622.069 359.348C628.336 351.814 638.705 332.805 630.042 317.047C623.226 323.582 612.088 341.191 622.069 359.348Z" fill="#EAD7C6"/>
<path d="M626.629 358.514C636.157 354.206 658.085 348.584 669.574 360.558C657.995 366.18 633.194 373.642 626.629 358.514Z" fill="#EAD7C6"/>
<path d="M606.951 375.466C613.381 370.258 631.77 363.607 653.878 378.666C644.521 383.624 622.036 389.924 606.951 375.466Z" fill="#EAD7C6"/>
<path d="M613.542 387.456C606.384 383.361 592.918 389.499 587.079 393.08C604.631 407.968 623.751 400.617 631.116 395.081C623.859 394.052 622.489 392.575 613.542 387.456Z" fill="#EAD7C6"/>
<path d="M601.977 404.966C592.936 397.445 574.845 404.638 566.93 409.175C587.135 421.587 602.942 415.776 609.914 410.178C611.768 410.717 612.025 409.609 611.739 408.522C611.222 409.059 610.612 409.618 609.914 410.178C608.446 409.751 605.974 408.291 601.977 404.966Z" fill="#EAD7C6"/>
<path d="M639.967 348.111C649.337 347.076 667.815 343.461 671.485 336.645C665.099 333.362 649.854 331.059 639.967 348.111Z" fill="#EAD7C6"/>
<path d="M640.292 338.736C646.295 333.763 657.291 320.358 653.252 306.519C647.542 309.657 636.957 320.495 640.292 338.736Z" fill="#EAD7C6"/>
<path d="M553.949 441.53C559.623 440.496 566.63 437.135 569.565 428.703C569.961 426.732 570.926 423.221 572.127 421.88C573.038 421.55 573.447 421.361 573.131 421.341C572.784 421.32 572.447 421.523 572.127 421.88C567.102 423.699 546.817 429.791 548.804 435.329C550.682 440.563 543.496 441.495 536.853 441.129L548.394 441.855C548.12 448.044 553.312 460.163 576.273 459.124C574.314 455.552 569.983 448.384 568.334 448.28C566.037 445.965 560.546 442.124 553.949 441.53Z" fill="#EAD7C6"/>
<path d="M587.47 423.622C585.388 434.801 573.489 439.409 567.8 440.316C560.504 433.513 579.506 422.317 589.919 417.569C588.028 421.312 587.498 423.164 587.47 423.622Z" fill="#EAD7C6"/>
<path d="M588.942 449.575C584.839 444.628 573.023 443.173 567.628 443.064C570.646 446.242 577.254 453.392 579.537 456.57C581.82 459.748 591.207 459.258 595.615 458.615C595.1 457.663 593.044 454.523 588.942 449.575Z" fill="#EAD7C6"/>
<path d="M604.042 423.284C603.868 430.445 591.114 436.954 584.759 439.313C580.814 427.479 597.689 418.287 606.621 415.171C605.693 416.768 604.515 421.245 604.042 423.284Z" fill="#EAD7C6"/>
<path d="M621.988 423.033C622.192 428.563 609.548 434.434 603.2 436.679C606.469 419.782 619.136 413.544 625.061 412.537C623.824 414.666 622.497 420.421 621.988 423.033Z" fill="#EAD7C6"/>
<path d="M621.319 433.68C628.496 432.867 642.616 427.295 641.677 411.512C634.427 413.47 620.207 420.645 621.319 433.68Z" fill="#EAD7C6"/>
<path d="M638.664 432.012C645.234 429.896 658.571 422.505 659.366 409.866C652.846 411.18 639.579 417.449 638.664 432.012Z" fill="#EAD7C6"/>
<path d="M641.69 433.236C648.982 434.269 664.142 439.199 666.457 450.654C657.45 449.629 639.887 444.709 641.69 433.236Z" fill="#EAD7C6"/>
<path d="M623.593 435.892C629.382 435.221 642.826 438.204 650.291 455.5C642.856 454.918 627.109 450.181 623.593 435.892Z" fill="#EAD7C6"/>
<path d="M622.989 445.509C620.277 440.373 609.954 438.943 605.131 438.869C609.951 454.344 624.094 457.187 630.563 456.674C626.635 453.324 626.378 451.928 622.989 445.509Z" fill="#EAD7C6"/>
<path d="M609.506 451.557C606.967 443.674 593.495 441.126 587.077 440.838C594.409 455.842 606.001 458.35 612.259 457.652C613.158 458.671 613.729 458.109 613.969 457.355C613.459 457.48 612.886 457.582 612.259 457.652C611.547 456.844 610.628 455.043 609.506 451.557Z" fill="#EAD7C6"/>
<path d="M653.547 432.082C659.509 435.002 671.861 439.824 676.615 437.156C674.056 432.794 665.86 425.673 653.547 432.082Z" fill="#EAD7C6"/>
<path d="M657.277 426.63C662.723 425.938 674.319 422.115 677.139 412.362C672.56 412.074 662.176 414.525 657.277 426.63Z" fill="#EAD7C6"/>
<path d="M306.774 437.174C304.78 430.871 299.947 423.387 289.934 421.267C287.635 421.101 283.503 420.509 281.805 419.338C281.299 418.349 281.025 417.911 281.048 418.274C281.073 418.672 281.353 419.025 281.805 419.338C284.598 424.789 294.454 446.978 300.465 443.919C306.146 441.029 308.243 449.066 308.786 456.674L307.945 443.444C315.024 442.863 328.056 435.209 323.561 409.248C319.782 411.991 312.255 417.951 312.375 419.841C310.073 422.787 306.498 429.586 306.774 437.174Z" fill="#EAD7C6"/>
<path d="M281.572 401.638C294.585 402.393 301.543 415.259 303.395 421.597C296.711 430.876 281.237 410.883 274.335 399.726C278.865 401.336 281.047 401.672 281.572 401.638Z" fill="#EAD7C6"/>
<path d="M310.874 396.219C305.84 401.598 305.89 415.246 306.545 421.397C309.723 417.506 316.901 408.96 320.186 405.905C323.47 402.85 321.558 392.246 320.191 387.326C319.183 388.049 315.908 390.839 310.874 396.219Z" fill="#EAD7C6"/>
<path d="M278.796 382.841C286.965 382.006 296.207 395.57 299.807 402.456C286.919 408.651 274.031 390.786 269.198 381.079C271.147 381.904 276.409 382.597 278.796 382.841Z" fill="#EAD7C6"/>
<path d="M275.921 362.469C282.18 361.439 290.682 374.971 294.151 381.865C274.463 380.586 265.541 367.081 263.541 360.488C266.141 361.588 272.877 362.267 275.921 362.469Z" fill="#EAD7C6"/>
<path d="M288.125 361.693C286.165 353.649 277.791 338.396 259.978 341.741C263.251 349.702 273.463 364.839 288.125 361.693Z" fill="#EAD7C6"/>
<path d="M283.725 342.209C280.371 335.043 270.041 320.942 255.553 321.863C257.988 329.086 267.032 343.269 283.725 342.209Z" fill="#EAD7C6"/>
<path d="M284.681 338.59C284.804 330.15 288.222 312.197 300.915 307.912C301.048 318.303 297.988 338.986 284.681 338.59Z" fill="#EAD7C6"/>
<path d="M290.313 358.787C288.715 352.301 290.167 336.581 308.759 325.597C309.169 334.136 306.055 352.727 290.313 358.787Z" fill="#EAD7C6"/>
<path d="M301.336 358.087C295.887 361.912 295.75 373.858 296.363 379.353C313.265 371.638 314.457 355.145 312.94 347.863C309.697 352.812 308.147 353.306 301.336 358.087Z" fill="#EAD7C6"/>
<path d="M310.161 372.547C301.562 376.572 300.609 392.26 301.207 399.6C317.211 389.098 318.391 375.552 316.694 368.537C317.723 367.367 317.002 366.799 316.11 366.635C316.325 367.197 316.524 367.834 316.694 368.537C315.878 369.463 313.962 370.768 310.161 372.547Z" fill="#EAD7C6"/>
<path d="M281.658 325.273C284.117 318.072 287.819 303.329 284.098 298.308C279.507 301.848 272.592 312.196 281.658 325.273Z" fill="#EAD7C6"/>
<path d="M274.919 321.818C273.346 315.725 267.325 303.089 255.827 301.29C256.16 306.54 260.446 317.994 274.919 321.818Z" fill="#EAD7C6"/>
<path d="M649 132C609 150 521 217.6 489 344" stroke="#EAD7C6" stroke-width="11" stroke-linecap="round"/>
<path d="M198 132C238 150 326 217.6 358 344" stroke="#EAD7C6" stroke-width="11" stroke-linecap="round"/>
</svg>
