<svg width="987" height="603" viewBox="0 0 987 603" fill="none" xmlns="http://www.w3.org/2000/svg">
<path d="M665.319 514.849L861.334 240.735C861.334 240.735 875.753 206.479 879.826 192.607C883.899 178.736 875.184 142.001 875.184 142.001C835.772 47.1273 769.954 64.1096 741.971 84.46C658.026 45.4995 627.144 101.965 622.196 135.068L617.726 137.648C592.047 137.903 568.465 158.993 556.638 172.917C544.812 186.841 536.801 206.227 535.353 216.336C510.765 221.921 490.179 247.053 481.855 262.456C473.531 277.859 472.98 302.904 476.888 312.348C472.702 317.944 465.542 320.224 462.485 320.664C403.804 353.219 419.298 397.259 434.309 428.994C446.318 454.382 485.102 466.122 502.993 468.818C516.197 473.337 543.179 483.369 545.473 487.343C547.768 491.317 561.273 499.415 567.739 502.968C585.937 510.785 624.868 526.679 635.002 527.716C645.137 528.753 659.436 519.57 665.319 514.849Z" fill="#52240D"/>
<path d="M320.773 514.849L124.758 240.735C124.758 240.735 110.339 206.479 106.265 192.607C102.192 178.736 110.907 142.001 110.907 142.001C150.319 47.1273 216.137 64.1096 244.12 84.46C328.065 45.4995 358.948 101.965 363.895 135.068L368.365 137.648C394.044 137.903 417.626 158.993 429.453 172.917C441.279 186.841 449.291 206.227 450.739 216.336C475.326 221.921 495.913 247.053 504.237 262.456C512.561 277.859 513.111 302.904 509.203 312.348C513.389 317.944 520.549 320.224 523.606 320.664C582.287 353.219 566.793 397.259 551.782 428.994C539.773 454.382 500.989 466.122 483.098 468.818C469.894 473.337 442.912 483.369 440.618 487.343C438.323 491.317 424.818 499.415 418.353 502.968C400.154 510.785 361.223 526.679 351.089 527.716C340.955 528.753 326.655 519.57 320.773 514.849Z" fill="#52240D"/>
<path d="M337.334 505.942C329.254 500.886 320.55 491.444 321.198 476.703C321.795 473.435 322.459 467.454 321.435 464.662C320.238 463.599 319.725 463.058 320.223 463.221C320.769 463.399 321.162 463.917 321.435 464.662C328.038 470.525 355.459 492.278 349.022 499.566C342.94 506.455 362.266 515.176 372.689 518.676L345.663 509.836C342.301 519.507 326.921 534.94 292.304 519.309C297.495 515.023 308.526 506.664 311.121 507.513C316.063 505.362 326.841 502.821 337.334 505.942Z" fill="#EAD7C6"/>
<path d="M296.814 457.957C293.177 476.394 308.628 490.742 316.809 495.611C332.169 489.626 309.839 460.821 296.753 447.167C297.368 454.07 297.05 457.237 296.814 457.957Z" fill="#EAD7C6"/>
<path d="M278.689 496.905C288.013 491.817 307.044 496.805 315.394 499.936C308.817 502.97 294.301 509.91 288.853 513.393C283.406 516.877 269.294 510.386 262.919 506.705C264.291 505.559 269.366 501.993 278.689 496.905Z" fill="#EAD7C6"/>
<path d="M271.576 447.309C267.466 458.41 283.069 476.199 291.384 483.705C304.675 467.948 284.384 443.52 272.576 433.276C273.025 436.294 272.097 443.889 271.576 447.309Z" fill="#EAD7C6"/>
<path d="M244.176 435.953C240.483 444.319 256.307 461.063 264.681 468.389C269.991 440.448 254.355 423.127 245.873 417.96C246.472 421.985 244.991 431.633 244.176 435.953Z" fill="#EAD7C6"/>
<path d="M238.696 452.709C228.173 447.074 209.9 429.888 220.989 406.23C230.922 413.668 248.37 433.376 238.696 452.709Z" fill="#EAD7C6"/>
<path d="M213.084 439.545C204.291 432.281 188.331 412.781 194.837 392.889C204.043 398.892 220.58 416.627 213.084 439.545Z" fill="#EAD7C6"/>
<path d="M207.689 439.576C195.863 436.705 169.573 435.007 159.017 451.18C173.473 455.11 203.445 458.292 207.689 439.576Z" fill="#EAD7C6"/>
<path d="M233.851 454.715C225.373 450.147 202.908 446.509 180.876 468.501C192.646 472.152 219.719 474.505 233.851 454.715Z" fill="#EAD7C6"/>
<path d="M228.901 469.85C236.203 463.622 252.928 467.736 260.377 470.572C243.517 491.384 220.066 487.104 210.448 482.363C218.525 479.619 219.773 477.634 228.901 469.85Z" fill="#EAD7C6"/>
<path d="M245.905 487.378C254.622 476.826 276.862 481.149 286.893 484.63C266.465 503.184 247.134 499.949 237.952 495.052C235.949 496.068 235.416 494.856 235.509 493.551C236.215 494.055 237.033 494.562 237.952 495.052C239.54 494.247 242.051 492.044 245.905 487.378Z" fill="#EAD7C6"/>
<path d="M190.19 430.556C179.252 431.395 157.34 431.248 151.672 424.245C158.267 419.112 175.204 413.189 190.19 430.556Z" fill="#EAD7C6"/>
<path d="M187.796 419.905C179.858 415.514 164.39 402.556 166.023 385.858C173.23 388.215 187.674 398.325 187.796 419.905Z" fill="#EAD7C6"/>
<path d="M614.174 506.49C621.176 500.023 627.979 489.131 624.608 474.766C623.416 471.665 621.654 465.91 622.142 462.977C623.122 461.711 623.525 461.084 623.066 461.336C622.563 461.613 622.272 462.195 622.142 462.977C616.741 469.963 593.83 496.423 601.505 502.392C608.76 508.033 599.558 515.695 589.964 521.066L606.711 511.861C611.808 520.74 629.782 533.054 660.901 511.275C655.005 508.027 642.616 501.858 640.223 503.173C634.968 501.976 623.905 501.478 614.174 506.49Z" fill="#EAD7C6"/>
<path d="M645.094 451.824C652.086 469.266 639.563 486.231 632.427 492.532C616.223 489.499 632.826 457.053 643.153 441.21C643.829 448.106 644.728 451.159 645.094 451.824Z" fill="#EAD7C6"/>
<path d="M670.125 486.736C660.021 483.465 642.244 491.895 634.619 496.519C641.645 498.282 657.196 502.41 663.195 504.823C669.194 507.236 681.858 498.241 687.44 493.442C685.879 492.57 680.23 490.007 670.125 486.736Z" fill="#EAD7C6"/>
<path d="M667.919 436.681C674.016 446.828 661.983 467.2 655.204 476.119C639.221 463.099 654.632 435.332 664.335 423.076C664.454 426.126 666.774 433.417 667.919 436.681Z" fill="#EAD7C6"/>
<path d="M692.739 420.442C697.919 427.977 685.474 447.365 678.604 456.117C668.205 429.645 680.358 409.725 687.735 403.075C687.893 407.141 691.137 416.347 692.739 420.442Z" fill="#EAD7C6"/>
<path d="M701.231 435.891C710.526 428.402 725.296 408.126 710.012 386.935C701.631 396.085 688.14 418.687 701.231 435.891Z" fill="#EAD7C6"/>
<path d="M723.958 418.206C731.252 409.438 743.319 387.316 733.237 368.976C725.304 376.582 712.342 397.076 723.958 418.206Z" fill="#EAD7C6"/>
<path d="M729.265 417.236C740.353 412.222 765.873 405.679 779.244 419.614C765.768 426.157 736.905 434.841 729.265 417.236Z" fill="#EAD7C6"/>
<path d="M706.363 436.964C713.848 430.903 735.248 423.162 760.977 440.688C750.087 446.458 723.92 453.79 706.363 436.964Z" fill="#EAD7C6"/>
<path d="M714.034 450.918C705.704 446.152 690.032 453.296 683.237 457.463C703.664 474.789 725.915 466.235 734.488 459.792C726.042 458.594 724.447 456.875 714.034 450.918Z" fill="#EAD7C6"/>
<path d="M700.575 471.295C690.053 462.543 669 470.914 659.788 476.194C683.302 490.64 701.699 483.876 709.813 477.362C711.97 477.988 712.269 476.699 711.936 475.434C711.335 476.06 710.625 476.709 709.813 477.362C708.103 476.865 705.227 475.165 700.575 471.295Z" fill="#EAD7C6"/>
<path d="M744.788 405.128C755.692 403.924 777.197 399.717 781.468 391.784C774.036 387.964 756.294 385.283 744.788 405.128Z" fill="#EAD7C6"/>
<path d="M745.166 394.218C752.152 388.431 764.949 372.83 760.248 356.724C753.603 360.377 741.284 372.989 745.166 394.218Z" fill="#EAD7C6"/>
<path d="M644.68 513.848C651.284 512.645 659.439 508.734 662.854 498.921C663.315 496.627 664.439 492.54 665.836 490.98C666.896 490.597 667.372 490.376 667.004 490.353C666.6 490.328 666.208 490.564 665.836 490.98C659.988 493.097 636.381 500.187 638.693 506.632C640.879 512.723 632.516 513.808 624.785 513.382L638.216 514.227C637.897 521.43 643.94 535.534 670.661 534.324C668.381 530.168 663.341 521.825 661.422 521.704C658.749 519.01 652.358 514.54 644.68 513.848Z" fill="#EAD7C6"/>
<path d="M683.692 493.007C681.269 506.017 667.422 511.38 660.801 512.436C652.31 504.518 674.424 491.488 686.542 485.963C684.342 490.319 683.725 492.474 683.692 493.007Z" fill="#EAD7C6"/>
<path d="M685.405 523.212C680.63 517.454 666.879 515.761 660.6 515.633C664.113 519.332 671.803 527.654 674.46 531.352C677.117 535.051 688.041 534.48 693.171 533.732C692.572 532.624 690.18 528.969 685.405 523.212Z" fill="#EAD7C6"/>
<path d="M702.978 492.614C702.776 500.948 687.933 508.523 680.538 511.268C675.946 497.496 695.586 486.799 705.98 483.172C704.9 485.03 703.529 490.241 702.978 492.614Z" fill="#EAD7C6"/>
<path d="M723.864 492.322C724.101 498.757 709.386 505.591 701.999 508.203C705.803 488.538 720.545 481.278 727.441 480.107C726.001 482.584 724.456 489.283 723.864 492.322Z" fill="#EAD7C6"/>
<path d="M723.085 504.713C731.438 503.767 747.87 497.282 746.777 478.914C738.341 481.193 721.791 489.543 723.085 504.713Z" fill="#EAD7C6"/>
<path d="M743.272 502.771C750.917 500.309 766.439 491.707 767.364 476.998C759.777 478.527 744.337 485.824 743.272 502.771Z" fill="#EAD7C6"/>
<path d="M746.794 504.197C755.279 505.399 772.923 511.136 775.616 524.468C765.134 523.274 744.695 517.548 746.794 504.197Z" fill="#EAD7C6"/>
<path d="M725.732 507.287C732.469 506.507 748.116 509.978 756.802 530.107C748.15 529.429 729.824 523.917 725.732 507.287Z" fill="#EAD7C6"/>
<path d="M725.029 518.479C721.873 512.502 709.859 510.837 704.246 510.752C709.856 528.761 726.315 532.07 733.843 531.473C729.273 527.574 728.973 525.95 725.029 518.479Z" fill="#EAD7C6"/>
<path d="M709.337 525.519C706.383 516.344 690.705 513.379 683.235 513.043C691.767 530.504 705.259 533.424 712.541 532.611C713.588 533.798 714.252 533.144 714.531 532.266C713.938 532.411 713.271 532.53 712.541 532.611C711.712 531.671 710.644 529.575 709.337 525.519Z" fill="#EAD7C6"/>
<path d="M760.592 502.854C767.531 506.251 781.906 511.864 787.438 508.758C784.46 503.681 774.922 495.394 760.592 502.854Z" fill="#EAD7C6"/>
<path d="M764.934 496.508C771.271 495.703 784.766 491.254 788.048 479.903C782.719 479.568 770.634 482.42 764.934 496.508Z" fill="#EAD7C6"/>
<path d="M357.021 508.78C354.7 501.444 349.076 492.734 337.423 490.266C334.748 490.073 329.938 489.385 327.963 488.022C327.373 486.871 327.054 486.361 327.081 486.783C327.11 487.246 327.436 487.658 327.963 488.022C331.213 494.366 342.683 520.189 349.679 516.63C356.291 513.265 358.73 522.619 359.362 531.473L358.384 516.076C366.622 515.4 381.789 506.493 376.557 476.279C372.16 479.472 363.4 486.408 363.539 488.607C360.86 492.036 356.699 499.948 357.021 508.78Z" fill="#EAD7C6"/>
<path d="M327.691 467.423C342.836 468.301 350.933 483.274 353.088 490.651C345.31 501.45 327.301 478.182 319.269 465.198C324.54 467.071 327.08 467.462 327.691 467.423Z" fill="#EAD7C6"/>
<path d="M361.793 461.116C355.934 467.377 355.992 483.259 356.754 490.418C360.453 485.89 368.807 475.943 372.63 472.388C376.452 468.833 374.226 456.492 372.636 450.766C371.462 451.608 367.651 454.855 361.793 461.116Z" fill="#EAD7C6"/>
<path d="M324.461 445.547C333.968 444.575 344.723 460.361 348.913 468.375C333.914 475.584 318.915 454.793 313.29 443.496C315.559 444.456 321.683 445.263 324.461 445.547Z" fill="#EAD7C6"/>
<path d="M321.114 421.838C328.399 420.639 338.293 436.387 342.33 444.412C319.418 442.923 309.035 427.206 306.707 419.533C309.732 420.813 317.572 421.603 321.114 421.838Z" fill="#EAD7C6"/>
<path d="M335.318 420.935C333.036 411.573 323.29 393.822 302.56 397.715C306.369 406.98 318.253 424.596 335.318 420.935Z" fill="#EAD7C6"/>
<path d="M330.197 398.259C326.293 389.92 314.271 373.509 297.41 374.581C300.245 382.988 310.77 399.494 330.197 398.259Z" fill="#EAD7C6"/>
<path d="M331.309 394.048C331.452 384.225 335.43 363.332 350.202 358.346C350.357 370.438 346.796 394.509 331.309 394.048Z" fill="#EAD7C6"/>
<path d="M337.863 417.553C336.003 410.004 337.693 391.711 359.331 378.927C359.809 388.864 356.184 410.501 337.863 417.553Z" fill="#EAD7C6"/>
<path d="M350.692 416.738C344.351 421.19 344.191 435.093 344.904 441.488C364.575 432.509 365.963 413.315 364.197 404.84C360.423 410.6 358.619 411.174 350.692 416.738Z" fill="#EAD7C6"/>
<path d="M360.962 433.567C350.955 438.251 349.846 456.508 350.542 465.051C369.168 452.828 370.54 437.065 368.566 428.9C369.764 427.539 368.924 426.877 367.886 426.687C368.136 427.341 368.368 428.082 368.566 428.9C367.616 429.978 365.387 431.496 360.962 433.567Z" fill="#EAD7C6"/>
<path d="M327.791 378.55C330.653 370.169 334.961 353.012 330.631 347.168C325.288 351.288 317.24 363.331 327.791 378.55Z" fill="#EAD7C6"/>
<path d="M319.948 374.529C318.118 367.438 311.111 352.733 297.729 350.639C298.117 356.748 303.105 370.079 319.948 374.529Z" fill="#EAD7C6"/>
<path d="M755.391 154C708.891 174.887 606.591 253.328 569.391 400" stroke="#EAD7C6" stroke-width="11" stroke-linecap="round"/>
<path d="M230.391 154C276.891 174.887 379.191 253.328 416.391 400" stroke="#EAD7C6" stroke-width="11" stroke-linecap="round"/>
</svg>
