<svg width="441" height="210" viewBox="0 0 441 210" fill="none" xmlns="http://www.w3.org/2000/svg">
<path d="M34.944 14.3826C50.2187 14.3826 61.568 18.2225 68.992 25.9025C76.416 33.4972 80.128 44.4199 80.128 58.6706C80.128 67.9719 78.2933 76.1212 74.624 83.1186C71.04 90.0306 65.792 95.4066 58.88 99.2466C51.968 103.087 43.6053 105.007 33.792 105.007C32.512 105.007 30.8053 104.964 28.672 104.879C26.5387 104.793 24.32 104.751 22.016 104.751C19.7973 104.665 17.7493 104.623 15.872 104.623C12.8853 104.623 9.94133 104.665 7.04 104.751C4.13867 104.751 1.792 104.836 0 105.007V102.447C2.90133 102.276 5.07733 101.935 6.528 101.423C8.064 100.911 9.088 99.8865 9.6 98.3505C10.112 96.8145 10.368 94.5106 10.368 91.4386V27.9505C10.368 24.7932 10.112 22.4892 9.6 21.0385C9.088 19.5025 8.064 18.4785 6.528 17.9666C5.07733 17.3692 2.90133 17.0279 0 16.9425V14.3826C1.792 14.4679 4.13867 14.5959 7.04 14.7665C9.94133 14.8519 12.8 14.8519 15.616 14.7665C18.6027 14.6812 21.9733 14.5959 25.728 14.5105C29.4827 14.4252 32.5547 14.3826 34.944 14.3826ZM31.744 16.6865C27.8187 16.6865 25.2587 17.4119 24.064 18.8625C22.8693 20.3132 22.272 23.2572 22.272 27.6945V91.6946C22.272 96.1319 22.8693 99.0759 24.064 100.527C25.344 101.977 27.9467 102.703 31.872 102.703C41.1733 102.703 48.384 101.039 53.504 97.7105C58.624 94.2972 62.208 89.3479 64.256 82.8626C66.304 76.3772 67.328 68.4839 67.328 59.1825C67.328 49.6252 66.176 41.7319 63.872 35.5025C61.6533 29.1879 57.9413 24.4945 52.736 21.4225C47.616 18.2652 40.6187 16.6865 31.744 16.6865Z" fill="#EAD7C6"/>
<path d="M121.94 37.2945C129.449 37.2945 135.295 39.5985 139.476 44.2065C143.743 48.7292 151.624 65.9666 138.708 65.9666L100.692 65.4546L100.564 63.0225H132.308C135.124 63.0225 133.417 55.0012 132.564 51.5026C131.711 47.9186 130.345 45.0599 128.468 42.9265C126.676 40.7932 124.329 39.7265 121.428 39.7265C117.503 39.7265 114.004 41.6892 110.932 45.6146C107.945 49.5399 106.153 55.7692 105.556 64.3026L105.94 64.8146C105.769 66.0946 105.641 67.5026 105.556 69.0386C105.471 70.5746 105.428 72.1106 105.428 73.6466C105.428 79.4492 106.367 84.4412 108.244 88.6226C110.121 92.8039 112.553 96.0039 115.54 98.2226C118.612 100.356 121.769 101.423 125.012 101.423C127.572 101.423 130.004 101.039 132.308 100.271C134.612 99.4172 136.745 98.0519 138.708 96.1746C140.671 94.2972 142.377 91.7799 143.828 88.6226L146.388 89.6466C145.449 92.4626 143.913 95.1932 141.78 97.8386C139.647 100.484 136.959 102.66 133.716 104.367C130.473 105.988 126.719 106.799 122.452 106.799C116.308 106.799 111.017 105.391 106.58 102.575C102.228 99.7585 98.8573 95.8759 96.468 90.9266C94.164 85.8919 93.012 80.1319 93.012 73.6466C93.012 66.1372 94.2067 59.6945 96.596 54.3185C98.9853 48.8572 102.356 44.6759 106.708 41.7745C111.06 38.7879 116.137 37.2945 121.94 37.2945Z" fill="#EAD7C6"/>
<path d="M175.938 4.65455V93.1026C175.938 96.6866 176.663 99.1186 178.114 100.399C179.65 101.679 182.167 102.319 185.666 102.319V105.007C184.215 104.921 181.997 104.836 179.01 104.751C176.109 104.58 173.165 104.495 170.178 104.495C167.277 104.495 164.333 104.58 161.346 104.751C158.359 104.836 156.141 104.921 154.69 105.007V102.319C158.189 102.319 160.663 101.679 162.114 100.399C163.65 99.1186 164.418 96.6866 164.418 93.1026V20.0145C164.418 16.1745 163.735 13.3585 162.37 11.5665C161.005 9.68921 158.445 8.75055 154.69 8.75055V6.06254C157.421 6.31855 160.066 6.44655 162.626 6.44655C165.101 6.44655 167.447 6.31855 169.666 6.06254C171.97 5.72121 174.061 5.25188 175.938 4.65455Z" fill="#EAD7C6"/>
<path d="M213.459 37.6785V93.1026C213.459 96.6866 214.184 99.1186 215.635 100.399C217.171 101.679 219.688 102.319 223.187 102.319V105.007C221.736 104.921 219.518 104.836 216.531 104.751C213.63 104.58 210.686 104.495 207.699 104.495C204.798 104.495 201.854 104.58 198.867 104.751C195.88 104.836 193.662 104.921 192.211 105.007V102.319C195.71 102.319 198.184 101.679 199.635 100.399C201.171 99.1186 201.939 96.6866 201.939 93.1026V53.0385C201.939 49.1985 201.256 46.3825 199.891 44.5905C198.526 42.7132 195.966 41.7745 192.211 41.7745V39.0865C194.942 39.3425 197.587 39.4705 200.147 39.4705C202.622 39.4705 204.968 39.3425 207.187 39.0865C209.491 38.7452 211.582 38.2759 213.459 37.6785ZM220.243 0.942548C221.267 1.79588 221.822 2.90521 221.907 4.27054C222.078 5.63588 221.523 7.17188 220.243 8.87854C218.963 10.4999 217.384 12.1212 215.507 13.7425C213.63 15.3639 211.411 17.3265 208.851 19.6305C206.376 21.8492 203.432 24.7505 200.019 28.3345L198.611 27.1825C201.256 23.0012 203.347 19.4172 204.883 16.4305C206.504 13.4439 207.87 10.8412 208.979 8.62255C210.088 6.40388 211.283 4.48388 212.563 2.86255C213.843 1.15588 215.166 0.217214 216.531 0.0465444C217.982 -0.12412 219.219 0.174548 220.243 0.942548Z" fill="#EAD7C6"/>
<path d="M261.711 37.2945C264.442 37.2945 267.087 37.6359 269.647 38.3185C272.207 39.0012 274.511 40.0252 276.559 41.3906C278.522 42.6706 280.015 44.1639 281.039 45.8705C282.063 47.4919 282.575 49.2839 282.575 51.2465C282.575 53.5505 281.935 55.3425 280.655 56.6225C279.375 57.8172 277.754 58.4145 275.791 58.4145C273.914 58.4145 272.25 57.8599 270.799 56.7506C269.434 55.6412 268.624 54.0545 268.624 52.0065C268.624 50.0439 269.1 49.7012 270.124 48.5065C271.233 47.3119 272.19 47.1078 273.624 46.0065C275.058 44.9052 271.738 42.1585 269.519 41.1345C267.386 40.1105 265.082 39.5985 262.607 39.5985C260.474 39.5985 258.34 40.1105 256.207 41.1345C254.074 42.1585 252.111 43.8652 250.319 46.2546C248.527 48.5586 247.076 51.7585 245.967 55.8545C244.858 59.8652 244.303 64.8999 244.303 70.9585C244.303 78.4679 245.156 84.4412 246.863 88.8786C248.57 93.3159 250.788 96.5159 253.519 98.4786C256.335 100.356 259.407 101.295 262.735 101.295C264.954 101.295 267.215 100.868 269.519 100.015C271.823 99.1612 273.999 97.7959 276.047 95.9186C278.095 93.9559 279.844 91.3532 281.295 88.1106L283.727 89.0066C282.874 91.7372 281.466 94.5106 279.503 97.3266C277.54 100.057 274.98 102.319 271.823 104.111C268.666 105.903 264.783 106.799 260.175 106.799C254.884 106.799 250.106 105.433 245.839 102.703C241.572 99.9719 238.159 96.0892 235.599 91.0546C233.124 85.9345 231.887 79.8759 231.887 72.8785C231.887 65.8812 233.124 59.7372 235.599 54.4466C238.159 49.0706 241.7 44.8892 246.223 41.9025C250.746 38.8305 255.908 37.2945 261.711 37.2945Z" fill="#EAD7C6"/>
<path d="M306.553 7.08655C308.772 7.08655 310.692 7.89721 312.313 9.51854C313.934 11.1399 314.745 13.0599 314.745 15.2785C314.745 17.4972 313.934 19.4172 312.313 21.0385C310.692 22.6599 308.772 23.4705 306.553 23.4705C304.334 23.4705 302.414 22.6599 300.793 21.0385C299.172 19.4172 298.361 17.4972 298.361 15.2785C298.361 13.0599 299.172 11.1399 300.793 9.51854C302.414 7.89721 304.334 7.08655 306.553 7.08655ZM313.209 37.6785V93.1026C313.209 96.6866 313.934 99.1186 315.385 100.399C316.921 101.679 319.438 102.319 322.937 102.319V105.007C321.486 104.921 319.268 104.836 316.281 104.751C313.38 104.58 310.436 104.495 307.449 104.495C304.548 104.495 301.604 104.58 298.617 104.751C295.63 104.836 293.412 104.921 291.961 105.007V102.319C295.46 102.319 297.934 101.679 299.385 100.399C300.921 99.1186 301.689 96.6866 301.689 93.1026V53.0385C301.689 49.1985 301.006 46.3825 299.641 44.5905C298.276 42.7132 295.716 41.7745 291.961 41.7745V39.0865C294.692 39.3425 297.337 39.4705 299.897 39.4705C302.372 39.4705 304.718 39.3425 306.937 39.0865C309.241 38.7452 311.332 38.2759 313.209 37.6785Z" fill="#EAD7C6"/>
<path d="M347.637 105.903C344.138 105.903 341.109 105.263 338.549 103.983C335.989 102.617 334.026 100.74 332.661 98.3505C331.381 95.9612 330.741 93.1879 330.741 90.0306C330.741 86.2759 331.594 83.2039 333.301 80.8146C335.093 78.4252 337.354 76.5052 340.085 75.0546C342.816 73.6039 345.674 72.4092 348.661 71.4706C351.733 70.4466 354.634 69.5079 357.365 68.6545C360.096 67.7159 362.314 66.6492 364.021 65.4546C365.813 64.2599 366.709 62.6812 366.709 60.7185V52.7826C366.709 49.1986 366.154 46.4679 365.045 44.5905C364.021 42.7132 362.613 41.4759 360.821 40.8785C359.029 40.1959 357.024 39.8545 354.805 39.8545C352.672 39.8545 350.368 40.1532 347.893 40.7505C345.504 41.3479 343.584 42.5852 342.133 44.4625C343.754 44.8039 345.162 45.6572 346.357 47.0225C347.552 48.3879 348.149 50.1372 348.149 52.2705C348.149 54.4039 347.466 56.1106 346.101 57.3906C344.736 58.5852 342.986 59.1825 340.853 59.1825C338.378 59.1825 336.544 58.4145 335.349 56.8785C334.24 55.2572 333.685 53.4652 333.685 51.5026C333.685 49.2839 334.24 47.4919 335.349 46.1265C336.458 44.7612 337.866 43.4812 339.573 42.2865C341.536 40.9212 344.053 39.7692 347.125 38.8305C350.282 37.8065 353.824 37.2945 357.749 37.2945C361.248 37.2945 364.234 37.7212 366.709 38.5745C369.184 39.3425 371.232 40.4945 372.853 42.0306C375.072 44.0786 376.522 46.5959 377.205 49.5825C377.888 52.4839 378.229 55.9825 378.229 60.0785V95.6626C378.229 97.7959 378.528 99.3319 379.125 100.271C379.808 101.209 380.832 101.679 382.197 101.679C383.136 101.679 384.032 101.465 384.885 101.039C385.738 100.612 386.762 99.9292 387.957 98.9905L389.365 101.167C387.573 102.532 385.866 103.684 384.245 104.623C382.624 105.476 380.448 105.903 377.717 105.903C375.242 105.903 373.194 105.476 371.573 104.623C369.952 103.769 368.714 102.532 367.861 100.911C367.093 99.2039 366.709 97.0706 366.709 94.5106C364.405 98.3506 361.632 101.209 358.389 103.087C355.232 104.964 351.648 105.903 347.637 105.903ZM352.245 100.783C355.061 100.783 357.664 99.9719 360.053 98.3505C362.528 96.7292 364.746 94.2972 366.709 91.0546V72.6226C366.709 68.6585 364.192 68.6546 362.229 69.6786C360.266 70.6172 358.133 71.5986 355.829 72.6226C353.525 73.5612 351.306 74.7132 349.173 76.0786C347.125 77.3586 345.418 79.0652 344.053 81.1986C342.688 83.3319 342.005 86.1052 342.005 89.5186C342.005 92.9319 342.901 95.6625 344.693 97.7105C346.57 99.7585 349.088 100.783 352.245 100.783Z" fill="#EAD7C6"/>
<path d="M416.123 37.2945C419.536 37.2945 422.438 37.8492 424.827 38.9585C427.216 40.0679 428.966 41.0919 430.075 42.0306C432.891 44.3346 434.598 42.7985 435.195 37.4226H438.139C437.968 39.8119 437.84 42.6705 437.755 45.9985C437.67 49.2412 437.627 53.6359 437.627 59.1825H434.683C434.171 56.0252 433.275 52.9532 431.995 49.9665C430.8 46.9799 429.008 44.5479 426.619 42.6706C424.23 40.7079 421.115 39.7265 417.275 39.7265C414.288 39.7265 411.771 40.5799 409.723 42.2865C407.76 43.9079 406.779 46.3399 406.779 49.5825C406.779 52.1425 407.547 54.3612 409.083 56.2385C410.619 58.0305 412.624 59.7372 415.099 61.3585C417.574 62.8945 420.262 64.6012 423.163 66.4786C426.406 68.5266 429.35 70.6172 431.995 72.7506C434.64 74.8839 436.731 77.2306 438.267 79.7906C439.888 82.3506 440.699 85.3799 440.699 88.8786C440.699 92.8039 439.675 96.0892 437.627 98.7346C435.579 101.38 432.891 103.385 429.563 104.751C426.32 106.116 422.736 106.799 418.811 106.799C416.934 106.799 415.142 106.628 413.435 106.287C411.814 106.031 410.235 105.604 408.699 105.007C407.846 104.58 406.95 104.068 406.011 103.471C405.158 102.873 404.304 102.233 403.451 101.551C402.598 100.868 401.83 100.911 401.147 101.679C400.464 102.361 399.952 103.769 399.611 105.903H396.667C396.838 103.172 396.966 99.8439 397.051 95.9186C397.136 91.9932 397.179 86.7879 397.179 80.3026H400.123C400.72 85.0812 401.574 89.2625 402.683 92.8465C403.792 96.4306 405.542 99.2465 407.931 101.295C410.32 103.257 413.648 104.239 417.915 104.239C419.622 104.239 421.328 103.855 423.035 103.087C424.827 102.319 426.32 101.039 427.515 99.2466C428.71 97.4546 429.307 95.0652 429.307 92.0786C429.307 88.3239 427.942 85.2519 425.211 82.8626C422.48 80.4732 419.024 77.9559 414.843 75.3106C411.771 73.3479 408.87 71.3852 406.139 69.4226C403.494 67.4599 401.318 65.2412 399.611 62.7665C397.99 60.2919 397.179 57.3052 397.179 53.8066C397.179 49.9666 398.032 46.8519 399.739 44.4625C401.531 41.9879 403.878 40.1959 406.779 39.0865C409.68 37.8919 412.795 37.2945 416.123 37.2945Z" fill="#EAD7C6"/>
<path d="M86.544 183.159C82.576 183.159 78.992 182.231 75.792 180.375C72.656 178.455 70.16 175.703 68.304 172.119C66.512 168.471 65.616 164.119 65.616 159.063C65.616 153.879 66.576 149.495 68.496 145.911C70.48 142.263 73.072 139.511 76.272 137.655C79.472 135.735 82.928 134.775 86.64 134.775C89.84 134.775 92.496 135.351 94.608 136.503C96.72 137.655 98.576 138.967 100.176 140.439L97.68 143.415C96.208 142.007 94.576 140.855 92.784 139.959C90.992 138.999 88.976 138.519 86.736 138.519C83.6 138.519 80.752 139.383 78.192 141.111C75.696 142.839 73.712 145.239 72.24 148.311C70.768 151.383 70.032 154.967 70.032 159.063C70.032 163.095 70.704 166.647 72.048 169.719C73.456 172.727 75.408 175.095 77.904 176.823C80.464 178.551 83.408 179.415 86.736 179.415C89.168 179.415 91.408 178.903 93.456 177.879C95.568 176.791 97.424 175.543 99.024 174.135L101.232 177.111C99.248 178.839 97.04 180.279 94.608 181.431C92.176 182.583 89.488 183.159 86.544 183.159ZM121.724 183.159C118.076 183.159 114.94 182.135 112.316 180.087C109.692 178.039 108.38 174.839 108.38 170.487C108.38 165.367 110.78 161.495 115.58 158.871C120.38 156.183 127.9 154.263 138.14 153.111C138.204 150.743 137.948 148.471 137.372 146.295C136.796 144.055 135.708 142.199 134.108 140.727C132.572 139.255 130.268 138.519 127.196 138.519C124.124 138.519 121.308 139.127 118.748 140.343C116.188 141.559 114.108 142.743 112.508 143.895L110.588 140.727C111.676 139.959 113.084 139.127 114.812 138.231C116.54 137.271 118.492 136.471 120.668 135.831C122.908 135.127 125.276 134.775 127.772 134.775C131.42 134.775 134.3 135.575 136.412 137.175C138.524 138.775 140.028 140.919 140.924 143.607C141.884 146.231 142.364 149.207 142.364 152.535V182.007H138.716L138.332 176.055H138.044C135.676 177.911 133.116 179.575 130.364 181.047C127.612 182.455 124.732 183.159 121.724 183.159ZM122.492 179.511C125.116 179.511 127.644 178.871 130.076 177.591C132.572 176.311 135.26 174.455 138.14 172.023V156.375C131.804 157.143 126.78 158.135 123.068 159.351C119.356 160.567 116.7 162.103 115.1 163.959C113.5 165.751 112.7 167.863 112.7 170.295C112.7 173.623 113.66 175.991 115.58 177.399C117.564 178.807 119.868 179.511 122.492 179.511ZM169.936 183.159C166.544 183.159 163.376 182.551 160.432 181.335C157.552 180.055 155.088 178.551 153.04 176.823L155.536 173.655C157.52 175.255 159.632 176.631 161.872 177.783C164.112 178.935 166.896 179.511 170.224 179.511C173.808 179.511 176.528 178.615 178.384 176.823C180.24 174.967 181.168 172.823 181.168 170.391C181.168 168.471 180.592 166.871 179.44 165.591C178.288 164.311 176.848 163.255 175.12 162.423C173.456 161.591 171.728 160.855 169.936 160.215C167.632 159.383 165.36 158.455 163.12 157.431C160.944 156.407 159.152 155.095 157.744 153.495C156.336 151.831 155.632 149.687 155.632 147.063C155.632 143.671 156.88 140.791 159.376 138.423C161.936 135.991 165.616 134.775 170.416 134.775C172.912 134.775 175.312 135.223 177.616 136.119C179.984 137.015 182 138.167 183.664 139.575L181.36 142.551C179.76 141.399 178.096 140.439 176.368 139.671C174.64 138.839 172.624 138.423 170.32 138.423C166.736 138.423 164.08 139.287 162.352 141.015C160.688 142.743 159.856 144.663 159.856 146.775C159.856 148.503 160.336 149.943 161.296 151.095C162.32 152.247 163.632 153.207 165.232 153.975C166.896 154.679 168.624 155.383 170.416 156.087C172.848 156.983 175.216 157.943 177.52 158.967C179.824 159.991 181.712 161.367 183.184 163.095C184.72 164.823 185.488 167.191 185.488 170.199C185.488 172.503 184.88 174.647 183.664 176.631C182.448 178.551 180.688 180.119 178.384 181.335C176.08 182.551 173.264 183.159 169.936 183.159ZM215.178 183.159C211.274 183.159 207.69 182.199 204.426 180.279C201.226 178.359 198.666 175.607 196.746 172.023C194.826 168.375 193.866 164.055 193.866 159.063C193.866 154.007 194.826 149.687 196.746 146.103C198.666 142.455 201.162 139.671 204.234 137.751C207.306 135.767 210.538 134.775 213.93 134.775C219.434 134.775 223.754 136.631 226.89 140.343C230.026 144.055 231.594 149.303 231.594 156.087C231.594 156.663 231.562 157.239 231.498 157.815C231.498 158.391 231.434 158.967 231.306 159.543H198.186C198.25 163.383 198.986 166.807 200.394 169.815C201.866 172.823 203.882 175.191 206.442 176.919C209.066 178.647 212.106 179.511 215.562 179.511C218.058 179.511 220.298 179.127 222.282 178.359C224.33 177.591 226.218 176.599 227.946 175.383L229.674 178.647C227.882 179.735 225.866 180.759 223.626 181.719C221.386 182.679 218.57 183.159 215.178 183.159ZM198.186 156.087H227.562C227.562 150.199 226.346 145.783 223.914 142.839C221.482 139.895 218.186 138.423 214.026 138.423C211.402 138.423 208.938 139.127 206.634 140.535C204.394 141.943 202.506 143.959 200.97 146.583C199.434 149.207 198.506 152.375 198.186 156.087ZM244.112 182.007V135.927H248.336V182.007H244.112ZM246.32 124.791C245.296 124.791 244.432 124.439 243.728 123.735C243.024 123.031 242.672 122.071 242.672 120.855C242.672 119.767 243.024 118.871 243.728 118.167C244.432 117.463 245.296 117.111 246.32 117.111C247.408 117.111 248.272 117.463 248.912 118.167C249.616 118.871 249.968 119.767 249.968 120.855C249.968 122.071 249.616 123.031 248.912 123.735C248.272 124.439 247.408 124.791 246.32 124.791ZM266.05 182.007V135.927H269.698L270.082 144.471H270.37C271.906 141.655 273.762 139.351 275.938 137.559C278.178 135.703 280.674 134.775 283.426 134.775C284.322 134.775 285.122 134.839 285.826 134.967C286.53 135.095 287.266 135.351 288.034 135.735L287.074 139.575C286.306 139.255 285.634 139.063 285.058 138.999C284.482 138.871 283.746 138.807 282.85 138.807C280.802 138.807 278.626 139.703 276.322 141.495C274.082 143.223 272.066 146.263 270.274 150.615V182.007H266.05ZM304.536 183.159C300.888 183.159 297.752 182.135 295.128 180.087C292.504 178.039 291.192 174.839 291.192 170.487C291.192 165.367 293.592 161.495 298.392 158.871C303.192 156.183 310.712 154.263 320.952 153.111C321.016 150.743 320.76 148.471 320.184 146.295C319.608 144.055 318.52 142.199 316.92 140.727C315.384 139.255 313.08 138.519 310.008 138.519C306.936 138.519 304.12 139.127 301.56 140.343C299 141.559 296.92 142.743 295.32 143.895L293.4 140.727C294.488 139.959 295.896 139.127 297.624 138.231C299.352 137.271 301.304 136.471 303.48 135.831C305.72 135.127 308.088 134.775 310.584 134.775C314.232 134.775 317.112 135.575 319.224 137.175C321.336 138.775 322.84 140.919 323.736 143.607C324.696 146.231 325.176 149.207 325.176 152.535V182.007H321.528L321.144 176.055H320.856C318.488 177.911 315.928 179.575 313.176 181.047C310.424 182.455 307.544 183.159 304.536 183.159ZM305.304 179.511C307.928 179.511 310.456 178.871 312.888 177.591C315.384 176.311 318.072 174.455 320.952 172.023V156.375C314.616 157.143 309.592 158.135 305.88 159.351C302.168 160.567 299.512 162.103 297.912 163.959C296.312 165.751 295.512 167.863 295.512 170.295C295.512 173.623 296.472 175.991 298.392 177.399C300.376 178.807 302.68 179.511 305.304 179.511ZM352.748 183.159C349.356 183.159 346.188 182.551 343.244 181.335C340.364 180.055 337.9 178.551 335.852 176.823L338.348 173.655C340.332 175.255 342.444 176.631 344.684 177.783C346.924 178.935 349.708 179.511 353.036 179.511C356.62 179.511 359.34 178.615 361.196 176.823C363.052 174.967 363.98 172.823 363.98 170.391C363.98 168.471 363.404 166.871 362.252 165.591C361.1 164.311 359.66 163.255 357.932 162.423C356.268 161.591 354.54 160.855 352.748 160.215C350.444 159.383 348.172 158.455 345.932 157.431C343.756 156.407 341.964 155.095 340.556 153.495C339.148 151.831 338.444 149.687 338.444 147.063C338.444 143.671 339.692 140.791 342.188 138.423C344.748 135.991 348.428 134.775 353.228 134.775C355.724 134.775 358.124 135.223 360.428 136.119C362.796 137.015 364.812 138.167 366.476 139.575L364.172 142.551C362.572 141.399 360.908 140.439 359.18 139.671C357.452 138.839 355.436 138.423 353.132 138.423C349.548 138.423 346.892 139.287 345.164 141.015C343.5 142.743 342.668 144.663 342.668 146.775C342.668 148.503 343.148 149.943 344.108 151.095C345.132 152.247 346.444 153.207 348.044 153.975C349.708 154.679 351.436 155.383 353.228 156.087C355.66 156.983 358.028 157.943 360.332 158.967C362.636 159.991 364.524 161.367 365.996 163.095C367.532 164.823 368.3 167.191 368.3 170.199C368.3 172.503 367.692 174.647 366.476 176.631C365.26 178.551 363.5 180.119 361.196 181.335C358.892 182.551 356.076 183.159 352.748 183.159Z" fill="#EAD7C6"/>
</svg>
